<svg xmlns="http://www.w3.org/2000/svg" xmlns:xlink="http://www.w3.org/1999/xlink" width="1000" height="1000" viewBox="0 0 1000 1000">
  <defs>
    <linearGradient id="linear-gradient" x1="0.5" x2="0.5" y2="1" gradientUnits="objectBoundingBox">
      <stop offset="0" stop-color="#fc6767"/>
      <stop offset="1" stop-color="#ec008c"/>
    </linearGradient>
    <clipPath id="clip-S_-_THIN_-_ICON_-_COL_ON_BLACK">
      <rect width="1000" height="1000"/>
    </clipPath>
  </defs>
  <g id="S_-_THIN_-_ICON_-_COL_ON_BLACK" data-name="S - THIN - ICON - COL ON BLACK" clip-path="url(#clip-S_-_THIN_-_ICON_-_COL_ON_BLACK)">
    <rect width="1000" height="1000"/>
    <path id="Union_787" data-name="Union 787" d="M21833.531-2650.192a234.219,234.219,0,0,1-44.086-13.691,234.574,234.574,0,0,1-39.891-21.651,236.321,236.321,0,0,1-34.766-28.686,235.794,235.794,0,0,1-28.676-34.756,235.376,235.376,0,0,1-21.656-39.9,232.626,232.626,0,0,1-13.684-44.083,236.885,236.885,0,0,1-4.773-47.34,28.838,28.838,0,0,1,28.84-28.842,28.841,28.841,0,0,1,28.844,28.842l.008.013a178.094,178.094,0,0,0,3.605,35.694,174.965,174.965,0,0,0,10.32,33.257,176.909,176.909,0,0,0,16.332,30.1,178.064,178.064,0,0,0,21.633,26.224,178.707,178.707,0,0,0,26.223,21.638,177.346,177.346,0,0,0,30.1,16.335,176.168,176.168,0,0,0,33.262,10.324,178.347,178.347,0,0,0,35.707,3.595,178.376,178.376,0,0,0,35.707-3.595,176.042,176.042,0,0,0,33.258-10.324,176.753,176.753,0,0,0,30.1-16.335,178.912,178.912,0,0,0,26.223-21.638,178.547,178.547,0,0,0,21.637-26.224,177.2,177.2,0,0,0,16.336-30.1,176.146,176.146,0,0,0,10.324-33.257,178.559,178.559,0,0,0,3.6-35.707,178.506,178.506,0,0,0-3.6-35.708,176.871,176.871,0,0,0-10.324-33.264,176.6,176.6,0,0,0-16.336-30.093,178.114,178.114,0,0,0-21.637-26.229,178.816,178.816,0,0,0-26.223-21.638,177.685,177.685,0,0,0-30.1-16.33,176.9,176.9,0,0,0-33.258-10.33,178.719,178.719,0,0,0-35.707-3.595h-.035a28.837,28.837,0,0,1-28.8-28.842,28.835,28.835,0,0,1,28.8-28.842v-.007h.035a236.575,236.575,0,0,1,47.34,4.774,233.65,233.65,0,0,1,44.082,13.691,233.982,233.982,0,0,1,39.895,21.65,235.431,235.431,0,0,1,34.754,28.679,236.009,236.009,0,0,1,28.688,34.763,234.265,234.265,0,0,1,21.648,39.9,233.306,233.306,0,0,1,13.691,44.083,236.537,236.537,0,0,1,4.77,47.34,236.6,236.6,0,0,1-4.77,47.34,233.312,233.312,0,0,1-13.691,44.083,234.242,234.242,0,0,1-21.648,39.9,235.382,235.382,0,0,1-28.687,34.756,235.367,235.367,0,0,1-34.754,28.686,234.461,234.461,0,0,1-39.895,21.651,234.093,234.093,0,0,1-44.082,13.691,237.013,237.013,0,0,1-47.34,4.768A236.984,236.984,0,0,1,21833.531-2650.192Zm47.34-253.062a236.552,236.552,0,0,1-47.34-4.774,233.865,233.865,0,0,1-44.086-13.691,233.915,233.915,0,0,1-39.891-21.651,235.906,235.906,0,0,1-34.762-28.68,236.144,236.144,0,0,1-28.68-34.762,234.85,234.85,0,0,1-21.656-39.9,234.435,234.435,0,0,1-13.687-44.083,236.536,236.536,0,0,1-4.77-47.34,236.58,236.58,0,0,1,4.77-47.34,234.412,234.412,0,0,1,13.688-44.083,234.822,234.822,0,0,1,21.656-39.9,235.625,235.625,0,0,1,28.68-34.756,235.809,235.809,0,0,1,34.762-28.685,234.311,234.311,0,0,1,39.891-21.651,234.145,234.145,0,0,1,44.086-13.69,236.985,236.985,0,0,1,47.34-4.769,237.014,237.014,0,0,1,47.34,4.769,234.018,234.018,0,0,1,44.082,13.69,234.643,234.643,0,0,1,39.895,21.651,236.753,236.753,0,0,1,34.762,28.685,235.871,235.871,0,0,1,28.68,34.756,234.783,234.783,0,0,1,21.648,39.9,233.209,233.209,0,0,1,13.691,44.083,236.866,236.866,0,0,1,4.77,47.34,28.835,28.835,0,0,1-28.84,28.842,28.836,28.836,0,0,1-28.844-28.842l0-.014a178.37,178.37,0,0,0-3.6-35.693,176.361,176.361,0,0,0-10.32-33.258,177.341,177.341,0,0,0-16.34-30.1,178.132,178.132,0,0,0-21.633-26.223,178.878,178.878,0,0,0-26.223-21.638,176.687,176.687,0,0,0-30.1-16.336,175.968,175.968,0,0,0-33.258-10.323,178.234,178.234,0,0,0-35.707-3.6,178.205,178.205,0,0,0-35.707,3.6,176.094,176.094,0,0,0-33.262,10.323,177.28,177.28,0,0,0-30.1,16.336,178.673,178.673,0,0,0-26.223,21.638,178.838,178.838,0,0,0-21.637,26.223,176.736,176.736,0,0,0-16.328,30.1,175.881,175.881,0,0,0-10.332,33.258,178.541,178.541,0,0,0-3.6,35.707,178.505,178.505,0,0,0,3.6,35.707,176.039,176.039,0,0,0,10.332,33.264,176.8,176.8,0,0,0,16.328,30.093,179.1,179.1,0,0,0,21.637,26.229,178.68,178.68,0,0,0,26.223,21.639,178.205,178.205,0,0,0,30.1,16.328,176.689,176.689,0,0,0,33.262,10.331,178.691,178.691,0,0,0,35.707,3.6h.035a28.841,28.841,0,0,1,28.809,28.842,28.838,28.838,0,0,1-28.809,28.841v.006Z" transform="translate(-21380.869 3509.213)" fill="url(#linear-gradient)"/>
  </g>
</svg>
